<?xml version="1.0" encoding="utf-8"?>
<!-- Generator: Adobe Illustrator 19.0.1, SVG Export Plug-In . SVG Version: 6.00 Build 0)  -->
<svg version="1.1" id="Layer_1" xmlns="http://www.w3.org/2000/svg" xmlns:xlink="http://www.w3.org/1999/xlink" x="0px" y="0px"
	 viewBox="0 0 512 512" style="enable-background:new 0 0 512 512;" xml:space="preserve">
<style type="text/css">
	.st0{fill:#4285F4;}
	.st1{opacity:0.2;fill:#263238;}
	.st2{opacity:0.2;fill:#FFFFFF;}
	.st3{fill:#424242;}
	.st4{fill:#9E9E9E;}
	.st5{fill:url(#SVGID_1_);}
	.st6{fill:#E8E8E8;}
	.st7{fill:#FFFFFF;}
	.st8{opacity:0.3;fill:#263238;}
	.st9{fill:url(#SVGID_2_);}
</style>
<ellipse class="st0" cx="256" cy="262.6" rx="157.1" ry="154.9"/>
<path class="st1" d="M256,415c-86.3,0-156.4-68.7-157.1-153.7c0,0.4,0,0.8,0,1.2c0,85.5,70.3,154.9,157.1,154.9
	s157.1-69.4,157.1-154.9c0-0.4,0-0.8,0-1.2C412.4,346.3,342.3,415,256,415z"/>
<path class="st2" d="M256,110.2c86.3,0,156.4,68.7,157.1,153.7c0-0.4,0-0.8,0-1.2c0-85.5-70.3-154.9-157.1-154.9
	S98.9,177.1,98.9,262.6c0,0.4,0,0.8,0,1.2C99.6,178.9,169.7,110.2,256,110.2z"/>
<polygon class="st3" points="218.7,144.4 218.7,190.7 256,240.8 293.3,189.4 293.3,144.4 337.4,144.4 380.5,69.8 131.6,69.8 
	174.6,144.4 "/>
<g>
	<polygon class="st4" points="209.2,144.4 174.6,144.4 186.9,165.7 209.2,165.7 	"/>
	<polygon class="st4" points="302.8,165.7 325.1,165.7 337.4,144.4 302.8,144.4 	"/>
</g>
<polygon class="st3" points="293.3,368.5 293.3,338 256,286.8 218.7,338 218.7,368.5 174.7,368.5 131.5,443.1 380.5,443.1 
	337.5,368.5 "/>
<polygon class="st1" points="293.3,185.6 256,237.1 218.7,186.8 218.7,190.7 256,240.8 293.3,189.4 "/>
<polygon class="st2" points="131.6,69.8 380.4,69.8 378.9,72.4 133.1,72.4 "/>
<polygon class="st1" points="218.7,341.8 256.1,290.5 293.3,341.8 293.3,338 256.1,286.8 218.7,337.9 "/>
<polygon class="st1" points="380.4,443 131.6,443 133.1,440.3 378.9,440.3 "/>
<linearGradient id="SVGID_1_" gradientUnits="userSpaceOnUse" x1="202.7501" y1="205.35" x2="410.4839" y2="413.0838">
	<stop  offset="0" style="stop-color:#231F20;stop-opacity:0.16"/>
	<stop  offset="1" style="stop-color:#231F20;stop-opacity:0"/>
</linearGradient>
<path class="st5" d="M380.4,443L380.4,443l-1.5-2.7h0l-30.3-52.6c32.1-23.1,54.9-57.9,62.1-98L265.5,142.6L246,372.1l68.9,70.9
	l65.6,0.1L380.4,443z"/>
<polygon class="st6" points="265.5,142.6 195.5,282.7 246.3,282.7 246,372.1 316.9,231.2 265.2,231.2 "/>
<polygon class="st7" points="265.5,142.6 196.8,280.2 246.3,280.2 246,369.6 315.6,231.2 265.2,231.2 "/>
<g>
	<polygon class="st4" points="218.7,144.4 174.6,144.4 186.9,165.7 218.7,165.7 	"/>
	<polygon class="st4" points="293.3,165.7 325.1,165.7 337.4,144.4 293.3,144.4 	"/>
</g>
<g>
	<polygon class="st8" points="293.3,163.2 293.3,165.7 325.1,165.7 326.6,163.1 	"/>
	<polygon class="st8" points="218.7,163.2 185.4,163.1 186.9,165.7 218.7,165.7 	"/>
</g>
<radialGradient id="SVGID_2_" cx="132.0001" cy="70.4312" r="448.0002" gradientUnits="userSpaceOnUse">
	<stop  offset="0" style="stop-color:#FFFFFF;stop-opacity:0.1"/>
	<stop  offset="1" style="stop-color:#FFFFFF;stop-opacity:0"/>
</radialGradient>
<path class="st9" d="M413.1,263.8C413.1,263.8,413.1,263.8,413.1,263.8c0-0.4,0-0.8,0-1.2c0-53.6-27.7-100.9-69.7-128.7l37.1-64.1
	h-0.1H131.6l37,64.1c-42,27.8-69.7,75.1-69.7,128.7c0,0.4,0,0.8,0,1.2c0,0,0,0,0,0c0.4,50.9,25.8,96,64.6,124l-30.4,52.5h0l-1.5,2.7
	h0l-0.1,0.1l248.9,0l-0.1-0.1h0l-1.5-2.7h0l-30.3-52.6C387.4,359.8,412.7,314.8,413.1,263.8z"/>
</svg>
