<?xml version="1.0" encoding="utf-8"?>
<!-- Generator: Adobe Illustrator 19.0.1, SVG Export Plug-In . SVG Version: 6.00 Build 0)  -->
<svg version="1.1" id="Turbofan" xmlns="http://www.w3.org/2000/svg" xmlns:xlink="http://www.w3.org/1999/xlink" x="0px" y="0px"
	 viewBox="0 0 512 512" style="enable-background:new 0 0 512 512;" xml:space="preserve">
<style type="text/css">
	.st0{fill:#424242;}
	.st1{opacity:0.2;fill:#FFFFFF;}
	.st2{fill:#AFAFAF;}
	.st3{fill:#4285F4;}
	.st4{opacity:0.3;fill:#263238;}
	.st5{fill:url(#SVGID_1_);}
	.st6{fill:#E8E8E8;}
	.st7{fill:#D6D6D6;}
	.st8{fill:#FFFFFF;}
	.st9{fill:url(#SVGID_2_);}
	.st10{fill:url(#SVGID_3_);}
</style>
<path class="st0" d="M208,153.4l0,298.6l95.9,0l0-298.6H208z M301.5,449.5h-90.9V155.9h90.9V449.5z"/>
<polygon class="st0" points="20.9,78.8 64,153.4 208,153.4 208,452 304,452 304,153.4 447.6,153.4 490.7,78.8 "/>
<polygon class="st1" points="489.2,81.4 490.7,78.8 20.9,78.8 22.5,81.4 "/>
<g>
	<path class="st2" d="M103.3,153.4H64l12.3,21.3h17.7C96.7,167.3,99.7,160.2,103.3,153.4z"/>
	<path class="st2" d="M407.3,153.4c3.5,6.8,6.6,14,9.2,21.3h18.8l12.3-21.3H407.3z"/>
</g>
<ellipse class="st3" cx="255.3" cy="231.7" rx="171" ry="171"/>
<g>
	<path class="st4" d="M95,172.1H74.8l1.5,2.6h17.7C94.4,173.8,94.7,172.9,95,172.1z"/>
	<path class="st4" d="M415.6,172.1c0.3,0.9,0.6,1.7,0.9,2.6h18.8l1.5-2.6H415.6z"/>
</g>
<path class="st4" d="M255.3,400.2c-94,0-170.3-75.9-171-169.8c0,0.4,0,0.8,0,1.2c0,94.4,76.6,171,171,171s171-76.6,171-171
	c0-0.4,0-0.8,0-1.2C425.6,324.3,349.3,400.2,255.3,400.2z"/>
<path class="st1" d="M255.3,63.2c94,0,170.3,75.9,171,169.8c0-0.4,0-0.8,0-1.2c0-94.4-76.6-171-171-171s-171,76.6-171,171
	c0,0.4,0,0.8,0,1.2C85,139.1,161.3,63.2,255.3,63.2z"/>
<circle class="st4" cx="255.3" cy="233.6" r="112"/>
<radialGradient id="SVGID_1_" cx="263.5979" cy="228.1894" r="167.9331" gradientUnits="userSpaceOnUse">
	<stop  offset="0" style="stop-color:#231F20;stop-opacity:0.1"/>
	<stop  offset="1" style="stop-color:#231F20;stop-opacity:0"/>
</radialGradient>
<path class="st5" d="M425.2,251.2l-74.1-74.1l-12.3,7.1l-48.2-48.2l-34.1,89L240,295.8l14.9,49.8l49.9,49.9
	C369.1,376,417.4,319.8,425.2,251.2z"/>
<path class="st6" d="M254.9,123.5v111l49.2-65.7C301.4,140.7,281.6,123.5,254.9,123.5z"/>
<path class="st6" d="M157.8,178.5l97.1,56l-32.3-75.3C196.9,147.5,171.2,155.4,157.8,178.5z"/>
<path class="st6" d="M158.7,290.1l96.2-55.6l-81.3-9.6C150.5,241.3,145.3,267,158.7,290.1z"/>
<path class="st7" d="M254.9,345.6v-111l-49,63.7C208.5,326.4,228.1,345.6,254.9,345.6z"/>
<path class="st7" d="M287.2,309.8c25.7,11.8,51.5,2,64.8-21.1L255,231.9L287.2,309.8z"/>
<path class="st7" d="M351.1,179l-96.2,55.6l81.3,9.6C359.2,227.7,364.5,202,351.1,179z"/>
<path class="st8" d="M254.9,232.6v-111c26.7,0,46.3,17.3,49,45.5L254.9,232.6z"/>
<path class="st8" d="M254.9,232.6l-96.2-55.6c13.5-23.1,38.3-31.5,63.9-19.7L254.9,232.6z"/>
<path class="st8" d="M254.9,232.6l-96.2,55.6c-13.4-23.1-8.1-48.8,14.9-65.2L254.9,232.6z"/>
<path class="st6" d="M254.9,232.6v111c-26.7,0-46.3-17.3-49-45.5L254.9,232.6z"/>
<path class="st6" d="M254.9,232.6l96.2,55.6c-13.4,23.1-38.2,31.5-63.9,19.7L254.9,232.6z"/>
<path class="st6" d="M254.9,232.6l96.2-55.6c13.4,23.1,8.1,48.8-14.9,65.2L254.9,232.6z"/>
<circle class="st8" cx="254.8" cy="231.2" r="37"/>
<radialGradient id="SVGID_2_" cx="254.7767" cy="231.1532" r="37" gradientUnits="userSpaceOnUse">
	<stop  offset="0.4024" style="stop-color:#231F20;stop-opacity:0"/>
	<stop  offset="1" style="stop-color:#231F20;stop-opacity:4.000000e-02"/>
</radialGradient>
<circle class="st9" cx="254.8" cy="231.2" r="37"/>
<radialGradient id="SVGID_3_" cx="23.8151" cy="81.3501" r="468.185" gradientUnits="userSpaceOnUse">
	<stop  offset="0" style="stop-color:#FFFFFF;stop-opacity:0.1"/>
	<stop  offset="1" style="stop-color:#FFFFFF;stop-opacity:0"/>
</radialGradient>
<path class="st10" d="M331.8,78.8c-23-11.5-49-18.1-76.5-18.1s-53.5,6.5-76.5,18.1H20.9l0.7,1.3l0.8,1.4l0,0l41.6,72l10.8,18.7l0,0
	l1.5,2.6h17.7c-6.3,17.8-9.8,37-9.8,57c0,78,52.3,143.9,123.7,164.4V452l95.9,0v-56.3c70.7-21,122.3-86.4,122.3-164
	c0-20-3.4-39.2-9.8-57h18.8l12.3-21.3l43.1-74.6H331.8z M100.8,158.4c-0.1,0.1-0.1,0.2-0.2,0.4C100.6,158.7,100.7,158.6,100.8,158.4
	z M98.4,163.7c0,0.1-0.1,0.2-0.1,0.3C98.3,163.8,98.3,163.8,98.4,163.7z M409.8,158.4c0.1,0.1,0.1,0.2,0.2,0.4
	C410,158.7,409.9,158.6,409.8,158.4z M412.2,163.7c0,0.1,0.1,0.2,0.1,0.3C412.3,163.8,412.3,163.8,412.2,163.7z"/>
</svg>
